<?xml version="1.0" encoding="UTF-8" standalone="no"?>
<svg
   xmlns:dc="http://purl.org/dc/elements/1.1/"
   xmlns:cc="http://creativecommons.org/ns#"
   xmlns:rdf="http://www.w3.org/1999/02/22-rdf-syntax-ns#"
   xmlns:svg="http://www.w3.org/2000/svg"
   xmlns="http://www.w3.org/2000/svg"
   xmlns:xlink="http://www.w3.org/1999/xlink"
   xmlns:sodipodi="http://sodipodi.sourceforge.net/DTD/sodipodi-0.dtd"
   xmlns:inkscape="http://www.inkscape.org/namespaces/inkscape"
   width="500"
   height="500"
   viewBox="0 0 132.29166 132.29167"
   version="1.1"
   id="svg8"
   inkscape:version="1.0.2-2 (e86c870879, 2021-01-15)"
   sodipodi:docname="ebs.svg">
  <defs
     id="defs2">
    <linearGradient
       inkscape:collect="always"
       id="linearGradient1442">
      <stop
         style="stop-color:#1c1c1e;stop-opacity:1"
         offset="0"
         id="stop1438" />
      <stop
         style="stop-color:#454646;stop-opacity:1"
         offset="0.41730955"
         id="stop1446" />
      <stop
         style="stop-color:#000000;stop-opacity:1"
         offset="1"
         id="stop1440" />
    </linearGradient>
    <filter
       style="color-interpolation-filters:sRGB"
       inkscape:label="Drop Shadow"
       id="filter1394">
      <feFlood
         flood-opacity="0.219608"
         flood-color="rgb(0,0,0)"
         result="flood"
         id="feFlood1384" />
      <feComposite
         in="flood"
         in2="SourceGraphic"
         operator="in"
         result="composite1"
         id="feComposite1386" />
      <feGaussianBlur
         in="composite1"
         stdDeviation="0.3"
         result="blur"
         id="feGaussianBlur1388" />
      <feOffset
         dx="0.1"
         dy="0.7"
         result="offset"
         id="feOffset1390" />
      <feComposite
         in="SourceGraphic"
         in2="offset"
         operator="over"
         result="composite2"
         id="feComposite1392" />
    </filter>
    <filter
       style="color-interpolation-filters:sRGB"
       inkscape:label="Drop Shadow"
       id="filter1406">
      <feFlood
         flood-opacity="0.219608"
         flood-color="rgb(0,0,0)"
         result="flood"
         id="feFlood1396" />
      <feComposite
         in="flood"
         in2="SourceGraphic"
         operator="in"
         result="composite1"
         id="feComposite1398" />
      <feGaussianBlur
         in="composite1"
         stdDeviation="0.3"
         result="blur"
         id="feGaussianBlur1400" />
      <feOffset
         dx="0.1"
         dy="0.7"
         result="offset"
         id="feOffset1402" />
      <feComposite
         in="SourceGraphic"
         in2="offset"
         operator="over"
         result="composite2"
         id="feComposite1404" />
    </filter>
    <filter
       style="color-interpolation-filters:sRGB"
       inkscape:label="Drop Shadow"
       id="filter1418">
      <feFlood
         flood-opacity="0.219608"
         flood-color="rgb(0,0,0)"
         result="flood"
         id="feFlood1408" />
      <feComposite
         in="flood"
         in2="SourceGraphic"
         operator="in"
         result="composite1"
         id="feComposite1410" />
      <feGaussianBlur
         in="composite1"
         stdDeviation="0.3"
         result="blur"
         id="feGaussianBlur1412" />
      <feOffset
         dx="0.1"
         dy="0.7"
         result="offset"
         id="feOffset1414" />
      <feComposite
         in="SourceGraphic"
         in2="offset"
         operator="over"
         result="composite2"
         id="feComposite1416" />
    </filter>
    <linearGradient
       inkscape:collect="always"
       xlink:href="#linearGradient1442"
       id="linearGradient1444"
       x1="47.005741"
       y1="75.424034"
       x2="68.258339"
       y2="145.41982"
       gradientUnits="userSpaceOnUse" />
  </defs>
  <sodipodi:namedview
     id="base"
     pagecolor="#ffffff"
     bordercolor="#666666"
     borderopacity="1.0"
     inkscape:pageopacity="0.0"
     inkscape:pageshadow="2"
     inkscape:zoom="0.98994949"
     inkscape:cx="158.45165"
     inkscape:cy="309.52118"
     inkscape:document-units="px"
     inkscape:current-layer="layer1"
     inkscape:document-rotation="0"
     showgrid="false"
     inkscape:snap-global="true"
     units="px"
     inkscape:window-width="1920"
     inkscape:window-height="1017"
     inkscape:window-x="-8"
     inkscape:window-y="-8"
     inkscape:window-maximized="1" />
  <metadata
     id="metadata5">
    <rdf:RDF>
      <cc:Work
         rdf:about="">
        <dc:format>image/svg+xml</dc:format>
        <dc:type
           rdf:resource="http://purl.org/dc/dcmitype/StillImage" />
        <dc:title />
      </cc:Work>
    </rdf:RDF>
  </metadata>
  <g
     inkscape:label="Layer 1"
     inkscape:groupmode="layer"
     id="layer1">
    <g
       id="g869"
       transform="translate(0,-6.4890106)">
      <g
         id="g982"
         transform="matrix(1.0609939,0,0,1.0271538,-314.64375,-56.550304)">
        <path
           id="path959"
           style="opacity:1;fill:#00adb4;fill-opacity:1;stroke:none;stroke-width:0.999999"
           d="m 1305.8652,368.12109 c -3.9471,0.0303 -7.8238,0.2988 -11.4609,1.07618 -38.645,8.25698 -41.88,61.93462 -7,77.30664 15.199,6.69898 33.0077,2.95578 44.3848,-9.11524 3.3247,-3.52849 7.4408,-9.86844 8.9453,-13.28906 1.0635,-3.77212 3.8337,-4.02136 6.6133,-3.54102 3.6691,0.66308 14.4156,0.9766 18.0527,0.17969 5.5883,-1.31327 6.2169,1.49933 7.2012,4.52344 1.5183,4.66518 5.4438,9.08666 8.3925,12.12695 9.6211,9.91699 24.7882,15.0203 38.4102,11.5293 35.979,-9.21899 41.174,-58.17332 9,-75.44336 -12.864,-6.90599 -27.875,-4.79688 -42,-4.79688 h -61 c -6.1863,0 -12.9605,-0.60717 -19.5391,-0.55664 z m 104.9668,10.68164 c 11.5558,0.15285 14.2792,18.56251 1.5723,21.32813 -13.627,2.96598 -17.909,-18.44152 -4,-21.10352 0.8469,-0.16212 1.6573,-0.2348 2.4277,-0.22461 z m -0.4726,6.73243 c -0.2747,0.005 -0.5642,0.0436 -0.8653,0.11523 -5.071,1.20597 -3.4747,8.72737 1.6973,7.65039 4.3575,-0.90655 3.2879,-7.84604 -0.832,-7.76562 z m -110.0782,0.77148 c 1.4904,-0.005 2.9667,0.74871 3.2071,2.27734 v 17.42579 h 17.6152 c 3.0573,0.48083 3.0136,5.9001 0,6.50195 h -17.6152 v 17.20312 c -0.4808,3.0573 -5.9002,3.01353 -6.502,0 v -17.20312 h -17.2656 c -3.0135,-0.60185 -3.0573,-6.02112 0,-6.50195 h 17.2656 v -17.42579 c 0.301,-1.50674 1.8046,-2.27356 3.2949,-2.27734 z m 45.0313,10.51367 c 4.3954,0.0214 10.6551,2.7891 5.7598,5.25586 -3.5511,1.789 -14.5328,-1.73089 -8.3438,-4.79492 0.6559,-0.32494 1.5697,-0.46588 2.584,-0.46094 z m 18.832,0.0762 c 4.4416,0.067 10.962,2.64306 5.9278,5.17969 -3.84,1.93599 -15.5689,-1.6519 -8.5039,-4.79492 0.636,-0.28312 1.5512,-0.40022 2.5761,-0.38477 z m 27.2598,1.55079 c 13.663,0.60899 12.749,21.78899 -1,21.625 -13.926,-0.16517 -13.134,-22.25501 1,-21.625 z m 39,0 c 13.663,0.60899 12.749,21.78899 -1,21.625 -14.032,-0.16706 -13.321,-22.26303 1,-21.625 z m -39.8438,6.70703 c -0.5922,0.0382 -1.2128,0.22435 -1.8378,0.5957 -4.437,2.63599 -0.1538,9.69185 4.248,6.88086 3.5701,-2.27907 1.4695,-7.14039 -1.8281,-7.4668 -0.1903,-0.0188 -0.3846,-0.0225 -0.5821,-0.01 z m 38.961,0.0117 c -0.5811,0.0342 -1.188,0.2164 -1.8008,0.58398 -4.423,2.653 -0.1379,9.70984 4.2481,6.88086 3.4505,-2.22546 1.3652,-7.10252 -1.875,-7.45117 -0.187,-0.0201 -0.3786,-0.0251 -0.5723,-0.0137 z m -18.8594,12.875 c 12.6313,0.0426 14.203,20.40927 0.7422,21.51367 -14.003,1.14897 -16.166,-20.06215 -2,-21.45313 0.4303,-0.0423 0.8503,-0.0619 1.2578,-0.0605 z m -0.2383,6.91406 c -0.7843,-0.0519 -1.6367,0.16769 -2.5,0.76562 -3.889,2.69401 0.072,8.95832 4.1641,6.82032 3.8513,-2.01176 1.7348,-7.36086 -1.6641,-7.58594 z"
           transform="scale(0.26458333)" />
        <path
           style="opacity:1;fill:#00adb4;fill-opacity:1;stroke:none;stroke-width:0.999999"
           d="m 1353.4043,305.67773 c 0,3.21091 -1.2076,9.66344 2.3184,11.39844 4.57,2.248 21.2532,-1.97641 18.8652,8.5586 -0.936,4.129 -5.6626,4.91829 -9.1836,5.02929 -8.17,0.25599 -20.7711,-2.52956 -27.9551,2.02344 -9.294,5.891 -6.6629,20.15366 3.9551,22.59766 3.817,0.878 8.106,0.39257 12,0.39257 v 6 h 6 c 0,-3.24 1.1926,-9.46781 -2.3184,-11.25781 -4.469,-2.278 -21.9691,1.9925 -18.83,-8.6875 1.1579,-3.939 5.6134,-4.83467 9.1484,-5.01367 8.109,-0.411 20.6595,2.58172 27.8945,-1.61328 9.981,-5.786 6.4225,-20.00708 -3.8945,-22.58008 -3.933,-0.9811 -7.981,-0.84725 -12,-0.84766 v -6 z"
           transform="scale(0.26458333)"
           id="path935" />
        <path
           id="path933"
           style="opacity:1;fill:#00adb4;fill-opacity:1;stroke:none;stroke-width:0.999999"
           d="m 1356.6387,261.68164 c -1.3473,0.0241 -2.7605,0.19373 -4.2344,0.52734 -23.49,5.3167 -15.64,41.92044 8,36.55274 21.9769,-4.98994 16.4437,-37.44136 -3.7656,-37.08008 z m 7.7656,8.99609 3.0898,4.52539 c 0,0 -8.164,7.37039 -14.0898,13.26758 l -7.9277,-7.32812 3.6601,-3.41016 4.1973,4.28125 z"
           transform="scale(0.26458333)" />
      </g>
      <text
         xml:space="preserve"
         style="font-size:71.4983px;line-height:1.25;font-family:sans-serif;fill:#ffffff;fill-opacity:1;stroke-width:0.178748;"
         x="-4.831881"
         y="126.30515"
         id="text1130"
         transform="scale(1.0635348,0.94026072)"><tspan
           sodipodi:role="line"
           id="tspan1128"
           x="-4.831881"
           y="126.30515"
           style="font-style:normal;font-variant:normal;font-weight:bold;font-stretch:normal;font-family:Bahnschrift;-inkscape-font-specification:'Bahnschrift Bold';fill:#ffffff;fill-opacity:1;stroke-width:0.178748;">EBS</tspan></text>
    </g>
  </g>
</svg>
