<?xml version="1.0" encoding="UTF-8" standalone="no"?>
<svg
   xmlns:dc="http://purl.org/dc/elements/1.1/"
   xmlns:cc="http://creativecommons.org/ns#"
   xmlns:rdf="http://www.w3.org/1999/02/22-rdf-syntax-ns#"
   xmlns:svg="http://www.w3.org/2000/svg"
   xmlns="http://www.w3.org/2000/svg"
   xmlns:sodipodi="http://sodipodi.sourceforge.net/DTD/sodipodi-0.dtd"
   xmlns:inkscape="http://www.inkscape.org/namespaces/inkscape"
   width="25"
   height="25"
   viewBox="0 0 0.75 0.75"
   fill="none"
   version="1.1"
   id="svg4"
   sodipodi:docname="mail.svg"
   inkscape:version="1.0.2-2 (e86c870879, 2021-01-15)">
  <metadata
     id="metadata10">
    <rdf:RDF>
      <cc:Work
         rdf:about="">
        <dc:format>image/svg+xml</dc:format>
        <dc:type
           rdf:resource="http://purl.org/dc/dcmitype/StillImage" />
        <dc:title></dc:title>
      </cc:Work>
    </rdf:RDF>
  </metadata>
  <defs
     id="defs8" />
  <sodipodi:namedview
     pagecolor="#ffffff"
     bordercolor="#666666"
     borderopacity="1"
     objecttolerance="10"
     gridtolerance="10"
     guidetolerance="10"
     inkscape:pageopacity="0"
     inkscape:pageshadow="2"
     inkscape:window-width="1920"
     inkscape:window-height="1017"
     id="namedview6"
     showgrid="false"
     inkscape:zoom="3.0052038"
     inkscape:cx="65.132535"
     inkscape:cy="59.869094"
     inkscape:window-x="-8"
     inkscape:window-y="-8"
     inkscape:window-maximized="1"
     inkscape:current-layer="svg4" />
  <path
     d="M 0.13260926,0.26220871 0.2793883,0.36465987 c 0.0345555,0.0241175 0.0518334,0.0361783 0.0705062,0.0408644 0.0165043,0.004138 0.033708,0.004138 0.050213,0 0.0186713,-0.00469 0.0359531,-0.016747 0.0705062,-0.0408644 L 0.61739106,0.26220871 M 0.21879244,0.57238497 h 0.31241515 c 0.0301672,0 0.045252,0 0.0567734,-0.006147 0.010134,-0.005407 0.0183758,-0.0140343 0.0235392,-0.024645 0.005874,-0.0120632 0.005874,-0.0278569 0.005874,-0.0594411 V 0.26784825 c 0,-0.0315845 0,-0.0473771 -0.005874,-0.0594405 -0.005169,-0.0106114 -0.0134047,-0.0192392 -0.0235393,-0.0246457 -0.0115214,-0.006147 -0.0266069,-0.006147 -0.0567733,-0.006147 H 0.21879273 c -0.030168,0 -0.0452505,0 -0.0567733,0.006147 -0.0101346,0.005406 -0.0183759,0.0140343 -0.0235392,0.0246457 -0.005874,0.0120637 -0.005874,0.0278563 -0.005874,0.0594405 v 0.21430364 c 0,0.0315845 0,0.0473783 0.005874,0.0594411 0.005169,0.0106108 0.0134032,0.0192392 0.0235392,0.024645 0.0115221,0.006147 0.0266069,0.006147 0.056773,0.006147 z"
     stroke="#000000"
     stroke-width="0.0551157"
     stroke-linecap="round"
     stroke-linejoin="round"
     id="path2"
     style="fill:none;stroke:#00adb4;stroke-opacity:1" />
</svg>
